<svg width="15.000000" height="15.000000" viewBox="0 0 15 15" fill="none" xmlns="http://www.w3.org/2000/svg" xmlns:xlink="http://www.w3.org/1999/xlink">
	<defs>
		<clipPath id="clip27_4522">
			<rect id="Frame" rx="6.000000" width="15.000000" height="15.000000" fill="white" fill-opacity="0"/>
		</clipPath>
	</defs>
	<rect id="Frame" rx="6.000000" width="15.000000" height="15.000000" fill="#FFFFFF" fill-opacity="0"/>
	<g clip-path="url(#clip27_4522)">
		<path id="Vector" d="M0 10L15 10L15 15L0 15L0 10Z" fill="#1FBA4A" fill-opacity="1.000000" fill-rule="nonzero"/>
		<path id="Vector" d="M0 0L15 0L15 5L0 5L0 0Z" fill="#0099B5" fill-opacity="1.000000" fill-rule="nonzero"/>
		<path id="Vector" d="M0 4.79L15 4.79L15 10.2L0 10.2L0 4.79Z" fill="#CE1126" fill-opacity="1.000000" fill-rule="nonzero"/>
		<path id="Vector" d="M0 5.09L15 5.09L15 9.89L0 9.89L0 5.09Z" fill="#FFFFFF" fill-opacity="1.000000" fill-rule="nonzero"/>
		<path id="Vector" d="M4.49 2.39C4.49 3.39 3.89 4.19 3.14 4.19C2.4 4.19 1.79 3.39 1.79 2.39C1.79 1.4 2.4 0.59 3.14 0.59C3.89 0.59 4.49 1.4 4.49 2.39Z" fill="#FFFFFF" fill-opacity="1.000000" fill-rule="evenodd"/>
		<path id="Vector" d="M4.95 2.39C4.95 3.39 4.34 4.19 3.6 4.19C2.85 4.19 2.25 3.39 2.25 2.39C2.25 1.4 2.85 0.59 3.6 0.59C4.34 0.59 4.95 1.4 4.95 2.39Z" fill="#0099B5" fill-opacity="1.000000" fill-rule="evenodd"/>
		<path id="a" d="M6.11 3.48L6.03 3.82L6.16 3.88L6.11 3.48Z" fill="#FFFFFF" fill-opacity="1.000000" fill-rule="nonzero"/>
		<path id="a" d="M6.11 3.48L6.03 3.82L6.16 3.88L6.11 3.48Z" fill="#FFFFFF" fill-opacity="1.000000" fill-rule="nonzero"/>
		<path id="a" d="M6.11 3.48L6.03 3.82L6.16 3.88L6.11 3.48Z" fill="#FFFFFF" fill-opacity="1.000000" fill-rule="nonzero"/>
		<path id="a" d="M6.11 3.48L6.03 3.82L6.16 3.88L6.11 3.48Z" fill="#FFFFFF" fill-opacity="1.000000" fill-rule="nonzero"/>
		<path id="a" d="M6.11 3.48L6.03 3.82L6.16 3.88L6.11 3.48Z" fill="#FFFFFF" fill-opacity="1.000000" fill-rule="nonzero"/>
		<path id="a" d="M6.11 3.48L6.03 3.82L6.16 3.88L6.11 3.48Z" fill="#FFFFFF" fill-opacity="1.000000" fill-rule="nonzero"/>
		<path id="a" d="M6.11 3.48L6.03 3.82L6.16 3.88L6.11 3.48Z" fill="#FFFFFF" fill-opacity="1.000000" fill-rule="nonzero"/>
		<path id="a" d="M6.11 3.48L6.03 3.82L6.16 3.88L6.11 3.48Z" fill="#FFFFFF" fill-opacity="1.000000" fill-rule="nonzero"/>
		<path id="a" d="M6.11 3.48L6.03 3.82L6.16 3.88L6.11 3.48Z" fill="#FFFFFF" fill-opacity="1.000000" fill-rule="nonzero"/>
		<path id="a" d="M6.11 3.48L6.03 3.82L6.16 3.88L6.11 3.48Z" fill="#FFFFFF" fill-opacity="1.000000" fill-rule="nonzero"/>
		<path id="a" d="M6.11 3.48L6.03 3.82L6.16 3.88L6.11 3.48Z" fill="#FFFFFF" fill-opacity="1.000000" fill-rule="nonzero"/>
		<path id="a" d="M6.11 3.48L6.03 3.82L6.16 3.88L6.11 3.48Z" fill="#FFFFFF" fill-opacity="1.000000" fill-rule="nonzero"/>
		<path id="a" d="M6.11 3.48L6.03 3.82L6.16 3.88L6.11 3.48Z" fill="#FFFFFF" fill-opacity="1.000000" fill-rule="nonzero"/>
		<path id="a" d="M6.11 3.48L6.03 3.82L6.16 3.88L6.11 3.48Z" fill="#FFFFFF" fill-opacity="1.000000" fill-rule="nonzero"/>
		<path id="a" d="M6.11 3.48L6.03 3.82L6.16 3.88L6.11 3.48Z" fill="#FFFFFF" fill-opacity="1.000000" fill-rule="nonzero"/>
		<path id="a" d="M6.11 3.48L6.03 3.82L6.16 3.88L6.11 3.48Z" fill="#FFFFFF" fill-opacity="1.000000" fill-rule="nonzero"/>
		<path id="a" d="M6.11 3.48L6.03 3.82L6.16 3.88L6.11 3.48Z" fill="#FFFFFF" fill-opacity="1.000000" fill-rule="nonzero"/>
		<path id="a" d="M6.11 3.48L6.03 3.82L6.16 3.88L6.11 3.48Z" fill="#FFFFFF" fill-opacity="1.000000" fill-rule="nonzero"/>
		<path id="a" d="M6.11 3.48L6.03 3.82L6.16 3.88L6.11 3.48Z" fill="#FFFFFF" fill-opacity="1.000000" fill-rule="nonzero"/>
		<path id="a" d="M6.11 3.48L6.03 3.82L6.16 3.88L6.11 3.48Z" fill="#FFFFFF" fill-opacity="1.000000" fill-rule="nonzero"/>
		<path id="a" d="M6.11 3.48L6.03 3.82L6.16 3.88L6.11 3.48Z" fill="#FFFFFF" fill-opacity="1.000000" fill-rule="nonzero"/>
		<path id="a" d="M6.11 3.48L6.03 3.82L6.16 3.88L6.11 3.48Z" fill="#FFFFFF" fill-opacity="1.000000" fill-rule="nonzero"/>
		<path id="a" d="M6.11 3.48L6.03 3.82L6.16 3.88L6.11 3.48Z" fill="#FFFFFF" fill-opacity="1.000000" fill-rule="nonzero"/>
		<path id="a" d="M6.11 3.48L6.03 3.82L6.16 3.88L6.11 3.48Z" fill="#FFFFFF" fill-opacity="1.000000" fill-rule="nonzero"/>
		<path id="a" d="M6.11 3.48L6.03 3.82L6.16 3.88L6.11 3.48Z" fill="#FFFFFF" fill-opacity="1.000000" fill-rule="nonzero"/>
		<path id="a" d="M6.11 3.48L6.03 3.82L6.16 3.88L6.11 3.48Z" fill="#FFFFFF" fill-opacity="1.000000" fill-rule="nonzero"/>
		<path id="a" d="M6.11 3.48L6.03 3.82L6.16 3.88L6.11 3.48Z" fill="#FFFFFF" fill-opacity="1.000000" fill-rule="nonzero"/>
		<path id="a" d="M6.11 3.48L6.03 3.82L6.16 3.88L6.11 3.48Z" fill="#FFFFFF" fill-opacity="1.000000" fill-rule="nonzero"/>
		<path id="a" d="M6.11 3.48L6.03 3.82L6.16 3.88L6.11 3.48Z" fill="#FFFFFF" fill-opacity="1.000000" fill-rule="nonzero"/>
		<path id="a" d="M6.11 3.48L6.03 3.82L6.16 3.88L6.11 3.48Z" fill="#FFFFFF" fill-opacity="1.000000" fill-rule="nonzero"/>
		<path id="a" d="M6.11 3.48L6.03 3.82L6.16 3.88L6.11 3.48Z" fill="#FFFFFF" fill-opacity="1.000000" fill-rule="nonzero"/>
		<path id="a" d="M6.11 3.48L6.03 3.82L6.16 3.88L6.11 3.48Z" fill="#FFFFFF" fill-opacity="1.000000" fill-rule="nonzero"/>
		<path id="a" d="M6.11 3.48L6.03 3.82L6.16 3.88L6.11 3.48Z" fill="#FFFFFF" fill-opacity="1.000000" fill-rule="nonzero"/>
		<path id="a" d="M6.11 3.48L6.03 3.82L6.16 3.88L6.11 3.48Z" fill="#FFFFFF" fill-opacity="1.000000" fill-rule="nonzero"/>
		<path id="a" d="M6.11 3.48L6.03 3.82L6.16 3.88L6.11 3.48Z" fill="#FFFFFF" fill-opacity="1.000000" fill-rule="nonzero"/>
		<path id="a" d="M6.11 3.48L6.03 3.82L6.16 3.88L6.11 3.48Z" fill="#FFFFFF" fill-opacity="1.000000" fill-rule="nonzero"/>
		<path id="a" d="M6.11 3.48L6.03 3.82L6.16 3.88L6.11 3.48Z" fill="#FFFFFF" fill-opacity="1.000000" fill-rule="nonzero"/>
		<path id="a" d="M6.11 3.48L6.03 3.82L6.16 3.88L6.11 3.48Z" fill="#FFFFFF" fill-opacity="1.000000" fill-rule="nonzero"/>
		<path id="a" d="M6.11 3.48L6.03 3.82L6.16 3.88L6.11 3.48Z" fill="#FFFFFF" fill-opacity="1.000000" fill-rule="nonzero"/>
		<path id="a" d="M6.11 3.48L6.03 3.82L6.16 3.88L6.11 3.48Z" fill="#FFFFFF" fill-opacity="1.000000" fill-rule="nonzero"/>
		<path id="a" d="M6.11 3.48L6.03 3.82L6.16 3.88L6.11 3.48Z" fill="#FFFFFF" fill-opacity="1.000000" fill-rule="nonzero"/>
		<path id="a" d="M6.11 3.48L6.03 3.82L6.16 3.88L6.11 3.48Z" fill="#FFFFFF" fill-opacity="1.000000" fill-rule="nonzero"/>
		<path id="a" d="M6.11 3.48L6.03 3.82L6.16 3.88L6.11 3.48Z" fill="#FFFFFF" fill-opacity="1.000000" fill-rule="nonzero"/>
		<path id="a" d="M6.11 3.48L6.03 3.82L6.16 3.88L6.11 3.48Z" fill="#FFFFFF" fill-opacity="1.000000" fill-rule="nonzero"/>
		<path id="a" d="M6.11 3.48L6.03 3.82L6.16 3.88L6.11 3.48Z" fill="#FFFFFF" fill-opacity="1.000000" fill-rule="nonzero"/>
		<path id="a" d="M6.11 3.48L6.03 3.82L6.16 3.88L6.11 3.48Z" fill="#FFFFFF" fill-opacity="1.000000" fill-rule="nonzero"/>
		<path id="a" d="M6.11 3.48L6.03 3.82L6.16 3.88L6.11 3.48Z" fill="#FFFFFF" fill-opacity="1.000000" fill-rule="nonzero"/>
		<path id="a" d="M6.11 3.48L6.03 3.82L6.16 3.88L6.11 3.48Z" fill="#FFFFFF" fill-opacity="1.000000" fill-rule="nonzero"/>
		<path id="a" d="M6.11 3.48L6.03 3.82L6.16 3.88L6.11 3.48Z" fill="#FFFFFF" fill-opacity="1.000000" fill-rule="nonzero"/>
		<path id="a" d="M6.11 3.48L6.03 3.82L6.16 3.88L6.11 3.48Z" fill="#FFFFFF" fill-opacity="1.000000" fill-rule="nonzero"/>
		<path id="a" d="M6.11 3.48L6.03 3.82L6.16 3.88L6.11 3.48Z" fill="#FFFFFF" fill-opacity="1.000000" fill-rule="nonzero"/>
		<path id="a" d="M6.11 3.48L6.03 3.82L6.16 3.88L6.11 3.48Z" fill="#FFFFFF" fill-opacity="1.000000" fill-rule="nonzero"/>
		<path id="a" d="M6.11 3.48L6.03 3.82L6.16 3.88L6.11 3.48Z" fill="#FFFFFF" fill-opacity="1.000000" fill-rule="nonzero"/>
		<path id="a" d="M6.11 3.48L6.03 3.82L6.16 3.88L6.11 3.48Z" fill="#FFFFFF" fill-opacity="1.000000" fill-rule="nonzero"/>
		<path id="a" d="M6.11 3.48L6.03 3.82L6.16 3.88L6.11 3.48Z" fill="#FFFFFF" fill-opacity="1.000000" fill-rule="nonzero"/>
		<path id="a" d="M6.11 3.48L6.03 3.82L6.16 3.88L6.11 3.48Z" fill="#FFFFFF" fill-opacity="1.000000" fill-rule="nonzero"/>
		<path id="a" d="M6.11 3.48L6.03 3.82L6.16 3.88L6.11 3.48Z" fill="#FFFFFF" fill-opacity="1.000000" fill-rule="nonzero"/>
		<path id="a" d="M6.11 3.48L6.03 3.82L6.16 3.88L6.11 3.48Z" fill="#FFFFFF" fill-opacity="1.000000" fill-rule="nonzero"/>
		<path id="a" d="M6.11 3.48L6.03 3.82L6.16 3.88L6.11 3.48Z" fill="#FFFFFF" fill-opacity="1.000000" fill-rule="nonzero"/>
		<path id="a" d="M6.11 3.48L6.03 3.82L6.16 3.88L6.11 3.48Z" fill="#FFFFFF" fill-opacity="1.000000" fill-rule="nonzero"/>
	</g>
</svg>
